<svg xmlns="http://www.w3.org/2000/svg" xmlns:xlink="http://www.w3.org/1999/xlink" width="88" zoomAndPan="magnify" viewBox="0 0 66 35.25" height="47" preserveAspectRatio="xMidYMid meet" version="1.0"><defs><clipPath id="c8dff5306f"><path d="M 14.84375 0 L 64.78125 0 L 64.78125 33.777344 L 14.84375 33.777344 Z M 14.84375 0 " clip-rule="nonzero"/></clipPath><clipPath id="1ea41a1625"><path d="M 7.738281 2.21875 L 12.332031 2.21875 L 12.332031 31.769531 L 7.738281 31.769531 Z M 7.738281 2.21875 " clip-rule="nonzero"/></clipPath><clipPath id="7611167344"><path d="M 10.035156 2.21875 C 11.304688 2.21875 12.332031 3.25 12.332031 4.519531 L 12.332031 29.460938 C 12.332031 30.730469 11.304688 31.761719 10.035156 31.761719 C 8.765625 31.761719 7.738281 30.730469 7.738281 29.460938 L 7.738281 4.519531 C 7.738281 3.25 8.765625 2.21875 10.035156 2.21875 Z M 10.035156 2.21875 " clip-rule="nonzero"/></clipPath><clipPath id="4333acb8b8"><path d="M 0.9375 2.21875 L 5.535156 2.21875 L 5.535156 31.769531 L 0.9375 31.769531 Z M 0.9375 2.21875 " clip-rule="nonzero"/></clipPath><clipPath id="16584ae236"><path d="M 3.234375 2.21875 C 4.503906 2.21875 5.535156 3.25 5.535156 4.519531 L 5.535156 29.460938 C 5.535156 30.730469 4.503906 31.761719 3.234375 31.761719 C 1.96875 31.761719 0.9375 30.730469 0.9375 29.460938 L 0.9375 4.519531 C 0.9375 3.25 1.96875 2.21875 3.234375 2.21875 Z M 3.234375 2.21875 " clip-rule="nonzero"/></clipPath><clipPath id="6a014ba632"><path d="M 41.976562 12.582031 L 50.789062 12.582031 L 50.789062 21.394531 L 41.976562 21.394531 Z M 41.976562 12.582031 " clip-rule="nonzero"/></clipPath><clipPath id="93a65270f5"><path d="M 46.382812 12.582031 C 43.949219 12.582031 41.976562 14.554688 41.976562 16.988281 C 41.976562 19.421875 43.949219 21.394531 46.382812 21.394531 C 48.816406 21.394531 50.789062 19.421875 50.789062 16.988281 C 50.789062 14.554688 48.816406 12.582031 46.382812 12.582031 Z M 46.382812 12.582031 " clip-rule="nonzero"/></clipPath></defs><g clip-path="url(#c8dff5306f)"><path fill="#e49556" d="M 33.359375 16.988281 L 46.082031 28.972656 L 59.875 16.988281 L 46.082031 5.007812 Z M 64.09375 15.449219 C 64.558594 15.855469 64.785156 16.425781 64.757812 16.988281 C 64.785156 17.554688 64.558594 18.125 64.09375 18.53125 L 47.347656 33.078125 C 46.570312 33.753906 45.398438 33.730469 44.652344 33.027344 L 30.488281 19.691406 L 18.207031 31.257812 C 17.417969 32 16.160156 31.976562 15.398438 31.203125 C 15.027344 30.824219 14.84375 30.339844 14.84375 29.851562 C 14.84375 29.34375 15.046875 28.832031 15.453125 28.449219 L 27.621094 16.988281 L 15.453125 5.53125 C 15.046875 5.148438 14.84375 4.636719 14.84375 4.125 C 14.84375 3.640625 15.027344 3.15625 15.398438 2.777344 C 16.160156 2.003906 17.417969 1.976562 18.207031 2.722656 L 30.488281 14.289062 L 44.652344 0.953125 C 45.398438 0.25 46.570312 0.226562 47.347656 0.898438 L 64.09375 15.449219 " fill-opacity="1" fill-rule="nonzero"/></g><g clip-path="url(#1ea41a1625)"><g clip-path="url(#7611167344)"><path fill="#bb6137" d="M 7.738281 2.21875 L 12.332031 2.21875 L 12.332031 31.753906 L 7.738281 31.753906 Z M 7.738281 2.21875 " fill-opacity="1" fill-rule="nonzero"/></g></g><g clip-path="url(#4333acb8b8)"><g clip-path="url(#16584ae236)"><path fill="#bb6137" d="M 0.9375 2.21875 L 5.535156 2.21875 L 5.535156 31.753906 L 0.9375 31.753906 Z M 0.9375 2.21875 " fill-opacity="1" fill-rule="nonzero"/></g></g><g clip-path="url(#6a014ba632)"><g clip-path="url(#93a65270f5)"><path fill="#e49556" d="M 41.976562 12.582031 L 50.789062 12.582031 L 50.789062 21.394531 L 41.976562 21.394531 Z M 41.976562 12.582031 " fill-opacity="1" fill-rule="nonzero"/></g></g></svg>